<mxfile host="Electron" agent="Mozilla/5.0 (Windows NT 10.0; Win64; x64) AppleWebKit/537.36 (KHTML, like Gecko) draw.io/27.0.2 Chrome/134.0.6998.205 Electron/35.3.0 Safari/537.36" version="27.0.2">
  <diagram id="C5RBs43oDa-KdzZeNtuy" name="classes">
    <mxGraphModel dx="1665" dy="889" grid="1" gridSize="10" guides="1" tooltips="1" connect="1" arrows="1" fold="1" page="1" pageScale="1" pageWidth="827" pageHeight="1169" math="0" shadow="0">
      <root>
        <mxCell id="WIyWlLk6GJQsqaUBKTNV-0" />
        <mxCell id="WIyWlLk6GJQsqaUBKTNV-1" parent="WIyWlLk6GJQsqaUBKTNV-0" />
        <mxCell id="h8u2GZMTQ7rHhPasyivn-0" value="VariableIndex" style="swimlane;fontStyle=1;align=center;verticalAlign=top;childLayout=stackLayout;horizontal=1;startSize=26;horizontalStack=0;resizeParent=1;resizeParentMax=0;resizeLast=0;collapsible=1;marginBottom=0;whiteSpace=wrap;html=1;" vertex="1" parent="WIyWlLk6GJQsqaUBKTNV-1">
          <mxGeometry x="140" y="450" width="160" height="86" as="geometry" />
        </mxCell>
        <mxCell id="h8u2GZMTQ7rHhPasyivn-1" value="+ field: type" style="text;strokeColor=none;fillColor=none;align=left;verticalAlign=top;spacingLeft=4;spacingRight=4;overflow=hidden;rotatable=0;points=[[0,0.5],[1,0.5]];portConstraint=eastwest;whiteSpace=wrap;html=1;" vertex="1" parent="h8u2GZMTQ7rHhPasyivn-0">
          <mxGeometry y="26" width="160" height="26" as="geometry" />
        </mxCell>
        <mxCell id="h8u2GZMTQ7rHhPasyivn-2" value="" style="line;strokeWidth=1;fillColor=none;align=left;verticalAlign=middle;spacingTop=-1;spacingLeft=3;spacingRight=3;rotatable=0;labelPosition=right;points=[];portConstraint=eastwest;strokeColor=inherit;" vertex="1" parent="h8u2GZMTQ7rHhPasyivn-0">
          <mxGeometry y="52" width="160" height="8" as="geometry" />
        </mxCell>
        <mxCell id="h8u2GZMTQ7rHhPasyivn-3" value="+ method(type): type" style="text;strokeColor=none;fillColor=none;align=left;verticalAlign=top;spacingLeft=4;spacingRight=4;overflow=hidden;rotatable=0;points=[[0,0.5],[1,0.5]];portConstraint=eastwest;whiteSpace=wrap;html=1;" vertex="1" parent="h8u2GZMTQ7rHhPasyivn-0">
          <mxGeometry y="60" width="160" height="26" as="geometry" />
        </mxCell>
        <mxCell id="h8u2GZMTQ7rHhPasyivn-4" value="SimulatorController" style="swimlane;fontStyle=1;align=center;verticalAlign=top;childLayout=stackLayout;horizontal=1;startSize=26;horizontalStack=0;resizeParent=1;resizeParentMax=0;resizeLast=0;collapsible=1;marginBottom=0;whiteSpace=wrap;html=1;" vertex="1" parent="WIyWlLk6GJQsqaUBKTNV-1">
          <mxGeometry x="310" y="50" width="420" height="300" as="geometry" />
        </mxCell>
        <mxCell id="h8u2GZMTQ7rHhPasyivn-5" value="&lt;div&gt;&amp;nbsp; &amp;nbsp; - __instance: SimulatorController&amp;nbsp;&amp;lt; static &amp;gt;&lt;/div&gt;&lt;div&gt;&amp;nbsp; &amp;nbsp; - __buses: dict[str, Bus]&lt;/div&gt;&lt;div&gt;&amp;nbsp; &amp;nbsp; - __connections: dict[str, BusConnection]&lt;/div&gt;&lt;div&gt;&amp;nbsp; &amp;nbsp; - __listeners: list[Callable[[NetworkElement, ElementEvent], None]]&lt;/div&gt;" style="text;strokeColor=none;fillColor=none;align=left;verticalAlign=top;spacingLeft=4;spacingRight=4;overflow=hidden;rotatable=0;points=[[0,0.5],[1,0.5]];portConstraint=eastwest;whiteSpace=wrap;html=1;" vertex="1" parent="h8u2GZMTQ7rHhPasyivn-4">
          <mxGeometry y="26" width="420" height="74" as="geometry" />
        </mxCell>
        <mxCell id="h8u2GZMTQ7rHhPasyivn-6" value="" style="line;strokeWidth=1;fillColor=none;align=left;verticalAlign=middle;spacingTop=-1;spacingLeft=3;spacingRight=3;rotatable=0;labelPosition=right;points=[];portConstraint=eastwest;strokeColor=inherit;" vertex="1" parent="h8u2GZMTQ7rHhPasyivn-4">
          <mxGeometry y="100" width="420" height="8" as="geometry" />
        </mxCell>
        <mxCell id="h8u2GZMTQ7rHhPasyivn-7" value="&lt;div&gt;&amp;nbsp; &amp;nbsp; + instance(): SimulatorController&amp;nbsp;&amp;lt; static &amp;gt;&lt;/div&gt;&lt;div&gt;&amp;nbsp; &amp;nbsp; - __init__()&lt;/div&gt;&lt;div&gt;&amp;nbsp; &amp;nbsp; + listen(callback: Callable[[NetworkElement, ElementEvent], None]): None&lt;/div&gt;&lt;div&gt;&amp;nbsp; &amp;nbsp; + addBus(bus: Bus = Bus()): Bus&lt;/div&gt;&lt;div&gt;&amp;nbsp; &amp;nbsp; + addConnection(line: BusConnection): BusConnection&lt;/div&gt;&lt;div&gt;&amp;nbsp; &amp;nbsp; - __add_element(element: NetworkElement): NetworkElement&lt;/div&gt;&lt;div&gt;&amp;nbsp; &amp;nbsp; + updateElement(element: NetworkElement): None&lt;/div&gt;&lt;div&gt;&amp;nbsp; &amp;nbsp; + get_bus_by_id(id: str): Bus&lt;/div&gt;&lt;div&gt;&amp;nbsp; &amp;nbsp; + get_connection_by_id(id: str): BusConnection&lt;/div&gt;&lt;div&gt;&amp;nbsp; &amp;nbsp; + runPowerFlow(): None&lt;/div&gt;&lt;div&gt;&amp;nbsp; &amp;nbsp; + printNetwork(): None&lt;/div&gt;&lt;div&gt;&amp;nbsp; &amp;nbsp; + getElementNames(ids: list[str]): str&lt;/div&gt;" style="text;strokeColor=none;fillColor=none;align=left;verticalAlign=top;spacingLeft=4;spacingRight=4;overflow=hidden;rotatable=0;points=[[0,0.5],[1,0.5]];portConstraint=eastwest;whiteSpace=wrap;html=1;" vertex="1" parent="h8u2GZMTQ7rHhPasyivn-4">
          <mxGeometry y="108" width="420" height="192" as="geometry" />
        </mxCell>
      </root>
    </mxGraphModel>
  </diagram>
</mxfile>
